<?xml version="1.0" standalone="no"?>
<!DOCTYPE svg PUBLIC "-//W3C//DTD SVG 20010904//EN"
 "http://www.w3.org/TR/2001/REC-SVG-20010904/DTD/svg10.dtd">
<svg version="1.0" xmlns="http://www.w3.org/2000/svg"
 width="260.000000pt" height="260.000000pt" viewBox="0 0 260.000000 260.000000"
 preserveAspectRatio="xMidYMid meet">
<metadata>
Created by potrace 1.14, written by Peter Selinger 2001-2017
</metadata>
<g transform="translate(0.000000,260.000000) scale(0.100000,-0.100000)"
fill="#000000" stroke="none">
<path d="M2448 2384 c-7 -6 -16 -8 -66 -13 -7 0 -11 -5 -8 -10 3 -4 -6 -7 -19
-5 -14 1 -23 -2 -19 -7 5 -8 -10 -13 -20 -6 -2 1 -13 -6 -23 -16 -11 -9 -23
-14 -26 -10 -4 3 -7 0 -7 -7 0 -7 -3 -10 -6 -7 -4 4 -19 -2 -33 -12 -14 -10
-36 -22 -48 -25 -13 -4 -23 -12 -23 -17 0 -5 -3 -8 -7 -7 -14 4 -53 -13 -49
-21 3 -4 -5 -8 -16 -8 -12 -1 -24 -7 -28 -13 -4 -7 -10 -11 -14 -11 -3 1 -7 1
-8 0 -2 0 -12 -2 -22 -4 -10 -2 -22 -9 -26 -15 -4 -7 -10 -11 -14 -11 -9 1
-36 -9 -83 -30 -24 -10 -48 -19 -55 -19 -7 0 -21 -7 -31 -14 -10 -8 -26 -12
-36 -9 -10 3 -22 0 -26 -7 -5 -8 -10 -8 -20 0 -14 12 -485 20 -485 8 0 -4 -7
-5 -15 -2 -8 4 -23 0 -32 -7 -14 -12 -16 -12 -8 1 7 12 6 13 -6 4 -8 -6 -24
-10 -36 -9 -13 1 -23 -2 -23 -7 0 -5 -4 -6 -10 -3 -5 3 -10 1 -10 -5 0 -6 -4
-9 -8 -6 -5 3 -21 -2 -37 -10 -16 -8 -36 -16 -44 -18 -9 -2 -27 -8 -41 -13
-14 -6 -26 -7 -28 -4 -1 4 -16 5 -32 3 -17 -2 -30 0 -30 6 0 9 -21 15 -97 29
-18 3 -30 9 -27 14 4 8 -25 14 -48 10 -5 0 -8 4 -8 10 0 5 -5 7 -10 4 -5 -3
-10 -2 -10 3 0 6 -10 8 -22 4 -12 -3 -19 -1 -15 5 3 5 -9 16 -28 23 -19 7 -32
17 -29 22 3 4 -4 8 -15 8 -12 0 -21 5 -21 10 0 6 -6 10 -14 10 -7 0 -19 7 -26
15 -7 8 -16 12 -21 9 -5 -3 -9 -1 -9 5 0 5 -9 13 -20 16 -12 4 -30 16 -42 28
-11 12 -17 15 -13 7 6 -10 1 -8 -13 4 -12 11 -22 15 -22 11 0 -5 -6 -1 -12 8
-7 9 -20 17 -28 19 -8 2 -21 9 -28 16 -8 7 -19 9 -25 5 -6 -4 -8 -1 -5 9 4 10
-2 15 -21 16 -14 1 -41 3 -59 5 -17 1 -32 5 -32 9 0 3 -10 4 -23 1 -40 -8 -68
-26 -63 -40 3 -8 -2 -13 -12 -13 -16 -1 -16 -1 1 -11 13 -8 15 -14 7 -28 -7
-14 -6 -22 4 -31 19 -15 57 -91 42 -84 -6 3 -4 0 4 -8 8 -7 16 -20 18 -28 2
-8 8 -18 14 -21 5 -3 9 -9 9 -13 -2 -17 24 -94 30 -90 4 2 6 -7 3 -20 -2 -14
0 -28 6 -31 6 -4 8 -11 5 -16 -4 -5 -2 -9 4 -9 5 0 8 -11 7 -25 -2 -13 0 -22
5 -20 4 3 8 -3 8 -12 -1 -32 7 -68 19 -90 7 -12 13 -33 14 -47 1 -15 6 -26 10
-26 4 0 8 -9 8 -20 0 -11 4 -20 8 -20 4 0 9 -12 10 -27 1 -16 7 -30 13 -32 5
-1 2 -9 -7 -15 -13 -10 -14 -15 -4 -21 9 -6 11 -4 5 5 -5 9 -4 11 3 6 9 -5 9
-13 1 -27 -7 -14 -7 -24 0 -33 6 -7 8 -16 4 -20 -10 -10 -11 -116 -1 -122 4
-3 3 -15 -3 -26 -6 -11 -7 -23 -3 -27 5 -3 10 -24 12 -45 1 -22 8 -46 15 -55
9 -12 9 -13 -1 -7 -6 4 -12 2 -12 -3 0 -6 3 -11 8 -11 4 0 8 -15 9 -33 2 -40
41 -147 54 -147 5 0 9 -7 9 -15 0 -8 5 -15 10 -15 6 0 10 -6 10 -14 0 -8 9
-21 19 -28 11 -8 25 -26 32 -41 7 -15 16 -27 21 -27 4 0 8 -7 8 -16 0 -8 4
-12 10 -9 5 3 10 -1 10 -9 0 -9 5 -16 10 -16 6 0 10 -6 10 -13 0 -7 9 -19 20
-27 11 -8 20 -19 20 -25 0 -6 9 -17 20 -25 11 -8 20 -19 20 -24 0 -5 13 -22
30 -37 16 -16 27 -29 23 -29 -3 0 5 -10 18 -23 13 -13 32 -35 43 -50 10 -15
22 -24 27 -21 8 5 13 -10 10 -29 -1 -5 3 -6 9 -2 5 3 10 1 10 -5 0 -6 5 -8 10
-5 6 3 10 1 10 -4 0 -6 7 -11 15 -11 8 0 15 -4 15 -9 0 -5 15 -15 33 -22 17
-7 38 -19 45 -26 8 -7 18 -11 23 -8 5 4 9 1 9 -4 0 -6 6 -11 14 -11 8 0 16 -7
19 -15 4 -8 15 -12 26 -10 11 2 22 -3 25 -12 4 -9 9 -13 13 -9 3 3 15 -2 26
-11 10 -10 21 -17 23 -15 10 6 25 1 19 -7 -3 -6 4 -8 15 -6 11 2 20 0 20 -4 0
-4 24 -18 52 -31 29 -13 55 -26 58 -29 15 -18 63 -42 75 -37 8 3 17 0 21 -6 5
-7 2 -8 -7 -3 -8 5 -11 4 -6 0 4 -5 38 -10 76 -13 65 -3 70 -2 102 27 18 17
37 31 41 31 5 0 8 7 8 15 0 8 3 14 8 13 4 -2 27 16 51 40 24 23 48 42 53 42 5
0 6 5 3 11 -4 6 -1 9 7 7 7 -1 27 7 45 20 17 12 36 22 42 22 6 0 11 5 11 11 0
5 4 8 9 5 5 -4 11 -3 13 1 5 12 66 53 78 53 5 0 10 5 10 10 0 6 6 10 14 10 8
0 22 10 30 22 9 12 16 18 16 13 0 -6 7 -1 15 9 8 11 15 17 15 13 0 -9 55 46
55 56 0 4 6 11 13 16 8 5 14 12 14 17 1 16 12 39 25 52 7 8 11 18 8 23 -4 5
-2 9 3 9 5 0 22 25 37 55 14 30 31 55 36 55 5 0 9 3 8 8 -2 14 13 52 21 52 4
0 10 8 14 18 11 32 43 81 50 75 3 -3 6 1 6 11 0 10 5 27 12 39 7 12 13 28 14
36 2 8 6 17 11 20 5 3 8 13 8 21 0 8 5 26 12 39 6 14 10 28 7 33 -3 5 0 15 6
23 10 12 10 15 -1 15 -10 0 -10 3 -3 8 7 4 11 28 9 54 -1 32 2 45 9 41 6 -4 3
3 -7 14 -9 11 -14 22 -11 25 3 4 0 16 -6 28 -8 15 -8 20 -1 16 6 -4 11 -2 11
3 0 6 -5 11 -11 11 -5 0 -7 5 -4 10 3 6 2 10 -4 10 -5 0 -8 8 -6 18 1 9 -2 23
-8 30 -6 8 -6 12 2 12 7 0 9 5 4 13 -4 6 -8 17 -10 22 -1 6 -5 21 -8 35 -4 14
-7 31 -7 38 -1 6 -4 12 -8 12 -4 0 -7 7 -8 15 -1 8 -3 22 -4 30 -1 8 -6 15
-12 15 -7 0 -7 3 -1 8 11 7 16 23 21 61 1 13 8 27 15 31 6 4 9 12 5 18 -3 6
-2 13 4 17 6 4 8 11 5 16 -4 5 -1 9 5 9 6 0 8 5 5 10 -3 6 0 12 7 15 8 3 14
14 15 25 1 11 11 33 22 49 11 15 18 31 14 34 -3 4 2 9 11 13 9 3 14 9 11 14
-2 4 5 16 15 28 11 12 20 28 20 36 0 8 4 16 10 18 9 3 18 40 23 91 1 9 5 17 9
17 4 0 5 9 3 20 -2 11 0 20 6 20 5 0 8 3 8 8 -1 4 0 9 1 12 1 3 3 20 5 38 2
27 0 31 -11 21 -11 -9 -13 -9 -9 2 6 17 -17 53 -27 43z"/>
</g>
</svg>
